<svg id="visual" viewBox="0 0 900 600" width="900" height="600" xmlns="http://www.w3.org/2000/svg" xmlns:xlink="http://www.w3.org/1999/xlink" version="1.1"><rect x="0" y="0" width="900" height="600" fill="#1c6a94"></rect><path d="M0 442L129 429L257 365L386 419L514 428L643 423L771 396L900 414L900 601L771 601L643 601L514 601L386 601L257 601L129 601L0 601Z" fill="#f5730a"></path><path d="M0 393L129 394L257 480L386 454L514 447L643 403L771 405L900 415L900 601L771 601L643 601L514 601L386 601L257 601L129 601L0 601Z" fill="#b03806"></path><path d="M0 440L129 467L257 507L386 441L514 458L643 460L771 450L900 508L900 601L771 601L643 601L514 601L386 601L257 601L129 601L0 601Z" fill="#871400"></path><path d="M0 541L129 504L257 517L386 525L514 519L643 508L771 533L900 503L900 601L771 601L643 601L514 601L386 601L257 601L129 601L0 601Z" fill="#b03806"></path><path d="M0 536L129 528L257 548L386 542L514 563L643 547L771 525L900 558L900 601L771 601L643 601L514 601L386 601L257 601L129 601L0 601Z" fill="#f5730a"></path></svg>