<svg id="visual" viewBox="0 0 900 600" width="900" height="600" xmlns="http://www.w3.org/2000/svg" xmlns:xlink="http://www.w3.org/1999/xlink" version="1.1"><rect x="0" y="0" width="900" height="600" fill="#52b3ff"></rect><path d="M0 319L100 305L200 306L300 352L400 358L500 348L600 317L700 327L800 320L900 335L900 601L800 601L700 601L600 601L500 601L400 601L300 601L200 601L100 601L0 601Z" fill="#f5730a"></path><path d="M0 395L100 372L200 364L300 329L400 397L500 357L600 391L700 350L800 348L900 384L900 601L800 601L700 601L600 601L500 601L400 601L300 601L200 601L100 601L0 601Z" fill="#eb6a0a"></path><path d="M0 397L100 397L200 368L300 344L400 342L500 414L600 404L700 345L800 388L900 371L900 601L800 601L700 601L600 601L500 601L400 601L300 601L200 601L100 601L0 601Z" fill="#e16209"></path><path d="M0 366L100 418L200 372L300 397L400 377L500 367L600 434L700 432L800 423L900 372L900 601L800 601L700 601L600 601L500 601L400 601L300 601L200 601L100 601L0 601Z" fill="#d75909"></path><path d="M0 391L100 402L200 402L300 445L400 396L500 442L600 437L700 416L800 393L900 405L900 601L800 601L700 601L600 601L500 601L400 601L300 601L200 601L100 601L0 601Z" fill="#cd5108"></path><path d="M0 426L100 424L200 467L300 457L400 443L500 414L600 453L700 469L800 444L900 421L900 601L800 601L700 601L600 601L500 601L400 601L300 601L200 601L100 601L0 601Z" fill="#c34807"></path><path d="M0 474L100 470L200 445L300 483L400 487L500 451L600 465L700 461L800 442L900 457L900 601L800 601L700 601L600 601L500 601L400 601L300 601L200 601L100 601L0 601Z" fill="#b94007"></path><path d="M0 469L100 463L200 476L300 489L400 484L500 498L600 482L700 493L800 478L900 499L900 601L800 601L700 601L600 601L500 601L400 601L300 601L200 601L100 601L0 601Z" fill="#af3706"></path><path d="M0 513L100 501L200 495L300 514L400 520L500 497L600 497L700 517L800 505L900 500L900 601L800 601L700 601L600 601L500 601L400 601L300 601L200 601L100 601L0 601Z" fill="#a52f05"></path><path d="M0 535L100 528L200 508L300 525L400 520L500 525L600 513L700 516L800 535L900 522L900 601L800 601L700 601L600 601L500 601L400 601L300 601L200 601L100 601L0 601Z" fill="#9b2604"></path><path d="M0 551L100 554L200 541L300 539L400 551L500 541L600 544L700 550L800 542L900 543L900 601L800 601L700 601L600 601L500 601L400 601L300 601L200 601L100 601L0 601Z" fill="#911e02"></path><path d="M0 561L100 562L200 566L300 565L400 563L500 573L600 575L700 560L800 573L900 561L900 601L800 601L700 601L600 601L500 601L400 601L300 601L200 601L100 601L0 601Z" fill="#871400"></path></svg>