<svg id="visual" viewBox="0 0 900 600" width="900" height="600" xmlns="http://www.w3.org/2000/svg" xmlns:xlink="http://www.w3.org/1999/xlink" version="1.1"><g stroke-width="1" stroke-linejoin="bevel"><path d="M471 271.1L483 286L509 285Z" fill="#2f699a" stroke="#2f699a"></path><path d="M509 285L486 201.3L471 271.1Z" fill="#479bdf" stroke="#479bdf"></path><path d="M561 249.3L486 201.3L509 285Z" fill="#001122" stroke="#001122"></path><path d="M483 286L523 322.9L509 285Z" fill="#1f4a6f" stroke="#1f4a6f"></path><path d="M509 285L523 322.9L556 267Z" fill="#479bdf" stroke="#479bdf"></path><path d="M556 267L561 249.3L509 285Z" fill="#3f8ac7" stroke="#3f8ac7"></path><path d="M556 267L576 252.1L561 249.3Z" fill="#0f2c47" stroke="#0f2c47"></path><path d="M512 164.4L483 182.3L486 201.3Z" fill="#3779b0" stroke="#3779b0"></path><path d="M603 275.1L576 252.1L556 267Z" fill="#173b5a" stroke="#173b5a"></path><path d="M564 203.4L486 201.3L561 249.3Z" fill="#275984" stroke="#275984"></path><path d="M391 226.1L412 290.1L471 271.1Z" fill="#173b5a" stroke="#173b5a"></path><path d="M523 322.9L558 322L556 267Z" fill="#275984" stroke="#275984"></path><path d="M391 226.1L471 271.1L486 201.3Z" fill="#479bdf" stroke="#479bdf"></path><path d="M471 271.1L412 290.1L483 286Z" fill="#275984" stroke="#275984"></path><path d="M483 286L458 347.7L523 322.9Z" fill="#173b5a" stroke="#173b5a"></path><path d="M576 252.1L564 203.4L561 249.3Z" fill="#1f4a6f" stroke="#1f4a6f"></path><path d="M421 329L458 347.7L483 286Z" fill="#3f8ac7" stroke="#3f8ac7"></path><path d="M523 322.9L533 360.7L558 322Z" fill="#275984" stroke="#275984"></path><path d="M424 357.7L458 347.9L458 347.7Z" fill="#001122" stroke="#001122"></path><path d="M458 347.7L458 347.9L523 322.9Z" fill="#0f2c47" stroke="#0f2c47"></path><path d="M412 290.1L421 329L483 286Z" fill="#2f699a" stroke="#2f699a"></path><path d="M564 203.4L512 164.4L486 201.3Z" fill="#4facf7" stroke="#4facf7"></path><path d="M458 347.9L533 360.7L523 322.9Z" fill="#3f8ac7" stroke="#3f8ac7"></path><path d="M597 328L603 275.1L558 322Z" fill="#2f699a" stroke="#2f699a"></path><path d="M558 322L603 275.1L556 267Z" fill="#275984" stroke="#275984"></path><path d="M576 252.1L595 210.3L564 203.4Z" fill="#173b5a" stroke="#173b5a"></path><path d="M386 225.3L391 226.1L391 164.4Z" fill="#479bdf" stroke="#479bdf"></path><path d="M483 182.3L391 226.1L486 201.3Z" fill="#081f34" stroke="#081f34"></path><path d="M412 379.9L424 357.7L372 351.7Z" fill="#1f4a6f" stroke="#1f4a6f"></path><path d="M614 225.1L595 210.3L576 252.1Z" fill="#479bdf" stroke="#479bdf"></path><path d="M584 131.6L517 141.6L512 164.4Z" fill="#3779b0" stroke="#3779b0"></path><path d="M430 145.6L391 226.1L483 182.3Z" fill="#001122" stroke="#001122"></path><path d="M391 226.1L368 239.1L412 290.1Z" fill="#3f8ac7" stroke="#3f8ac7"></path><path d="M517 141.6L484 147.4L512 164.4Z" fill="#3779b0" stroke="#3779b0"></path><path d="M512 164.4L484 147.4L483 182.3Z" fill="#2f699a" stroke="#2f699a"></path><path d="M372 351.7L421 329L412 290.1Z" fill="#4facf7" stroke="#4facf7"></path><path d="M421 329L424 357.7L458 347.7Z" fill="#001122" stroke="#001122"></path><path d="M458 347.9L477 429.6L533 360.7Z" fill="#081f34" stroke="#081f34"></path><path d="M574 363.9L597 328L558 322Z" fill="#1f4a6f" stroke="#1f4a6f"></path><path d="M584 131.6L512 164.4L564 203.4Z" fill="#1f4a6f" stroke="#1f4a6f"></path><path d="M603 275.1L614 225.1L576 252.1Z" fill="#4facf7" stroke="#4facf7"></path><path d="M595 210.3L613 191.4L564 203.4Z" fill="#001122" stroke="#001122"></path><path d="M631 195.3L614 225.1L705 224.3Z" fill="#275984" stroke="#275984"></path><path d="M588 402.7L574 363.9L533 360.7Z" fill="#2f699a" stroke="#2f699a"></path><path d="M533 360.7L574 363.9L558 322Z" fill="#0f2c47" stroke="#0f2c47"></path><path d="M343 194.4L368 239.1L386 225.3Z" fill="#3f8ac7" stroke="#3f8ac7"></path><path d="M386 225.3L368 239.1L391 226.1Z" fill="#3f8ac7" stroke="#3f8ac7"></path><path d="M412 379.9L425 373.9L424 357.7Z" fill="#2f699a" stroke="#2f699a"></path><path d="M424 357.7L425 373.9L458 347.9Z" fill="#479bdf" stroke="#479bdf"></path><path d="M450 81.7L460 137.4L484 147.4Z" fill="#2f699a" stroke="#2f699a"></path><path d="M484 147.4L460 137.4L483 182.3Z" fill="#3779b0" stroke="#3779b0"></path><path d="M460 137.4L430 145.6L483 182.3Z" fill="#173b5a" stroke="#173b5a"></path><path d="M614 225.1L613 191.4L595 210.3Z" fill="#275984" stroke="#275984"></path><path d="M372 351.7L424 357.7L421 329Z" fill="#2f699a" stroke="#2f699a"></path><path d="M425 373.9L477 429.6L458 347.9Z" fill="#081f34" stroke="#081f34"></path><path d="M430 145.6L391 164.4L391 226.1Z" fill="#173b5a" stroke="#173b5a"></path><path d="M427 114.7L402 145.6L430 145.6Z" fill="#3f8ac7" stroke="#3f8ac7"></path><path d="M430 145.6L402 145.6L391 164.4Z" fill="#2f699a" stroke="#2f699a"></path><path d="M342 283L372 351.7L412 290.1Z" fill="#3779b0" stroke="#3779b0"></path><path d="M673 289.1L614 225.1L603 275.1Z" fill="#1f4a6f" stroke="#1f4a6f"></path><path d="M614 225.1L631 195.3L613 191.4Z" fill="#479bdf" stroke="#479bdf"></path><path d="M613 191.4L584 131.6L564 203.4Z" fill="#2f699a" stroke="#2f699a"></path><path d="M310 203.3L341 264.1L368 239.1Z" fill="#1f4a6f" stroke="#1f4a6f"></path><path d="M368 239.1L342 283L412 290.1Z" fill="#275984" stroke="#275984"></path><path d="M341 264.1L342 283L368 239.1Z" fill="#1f4a6f" stroke="#1f4a6f"></path><path d="M645 109.6L584 131.6L613 191.4Z" fill="#081f34" stroke="#081f34"></path><path d="M517 141.6L450 81.7L484 147.4Z" fill="#479bdf" stroke="#479bdf"></path><path d="M584 131.6L544 109.6L517 141.6Z" fill="#2f699a" stroke="#2f699a"></path><path d="M460 137.4L427 114.7L430 145.6Z" fill="#0f2c47" stroke="#0f2c47"></path><path d="M355 375.9L417 407.7L412 379.9Z" fill="#275984" stroke="#275984"></path><path d="M412 379.9L417 407.7L425 373.9Z" fill="#1f4a6f" stroke="#1f4a6f"></path><path d="M450 81.7L427 114.7L460 137.4Z" fill="#479bdf" stroke="#479bdf"></path><path d="M417 407.7L477 429.6L425 373.9Z" fill="#001122" stroke="#001122"></path><path d="M576 432.6L588 402.7L533 360.7Z" fill="#0f2c47" stroke="#0f2c47"></path><path d="M574 363.9L642 348.9L597 328Z" fill="#081f34" stroke="#081f34"></path><path d="M597 328L673 289.1L603 275.1Z" fill="#1f4a6f" stroke="#1f4a6f"></path><path d="M324 181.3L343 194.4L324 149.4Z" fill="#081f34" stroke="#081f34"></path><path d="M391 164.4L343 194.4L386 225.3Z" fill="#173b5a" stroke="#173b5a"></path><path d="M343 194.4L391 164.4L335 137.6Z" fill="#275984" stroke="#275984"></path><path d="M588 402.7L642 348.9L574 363.9Z" fill="#001122" stroke="#001122"></path><path d="M253 246.3L322 298L341 264.1Z" fill="#3779b0" stroke="#3779b0"></path><path d="M341 264.1L322 298L342 283Z" fill="#3779b0" stroke="#3779b0"></path><path d="M342 283L322 298L372 351.7Z" fill="#3f8ac7" stroke="#3f8ac7"></path><path d="M372 351.7L355 375.9L412 379.9Z" fill="#479bdf" stroke="#479bdf"></path><path d="M584 131.6L561 98.7L544 109.6Z" fill="#275984" stroke="#275984"></path><path d="M544 109.6L450 81.7L517 141.6Z" fill="#001122" stroke="#001122"></path><path d="M569 79.9L561 98.7L584 131.6Z" fill="#1f4a6f" stroke="#1f4a6f"></path><path d="M298 355.9L355 375.9L372 351.7Z" fill="#3779b0" stroke="#3779b0"></path><path d="M642 348.9L673 289.1L597 328Z" fill="#001122" stroke="#001122"></path><path d="M532 449.6L576 432.6L533 360.7Z" fill="#2f699a" stroke="#2f699a"></path><path d="M588 402.7L644 406.7L642 348.9Z" fill="#1f4a6f" stroke="#1f4a6f"></path><path d="M576 432.6L592 424.6L588 402.7Z" fill="#479bdf" stroke="#479bdf"></path><path d="M502 44.9L450 81.7L544 109.6Z" fill="#3f8ac7" stroke="#3f8ac7"></path><path d="M335 137.6L391 164.4L402 145.6Z" fill="#275984" stroke="#275984"></path><path d="M477 429.6L532 449.6L533 360.7Z" fill="#3f8ac7" stroke="#3f8ac7"></path><path d="M695 269.1L685 270L673 289.1Z" fill="#173b5a" stroke="#173b5a"></path><path d="M673 289.1L685 270L614 225.1Z" fill="#001122" stroke="#001122"></path><path d="M335 137.6L402 145.6L335 117.6Z" fill="#081f34" stroke="#081f34"></path><path d="M343 194.4L310 203.3L368 239.1Z" fill="#2f699a" stroke="#2f699a"></path><path d="M324 181.3L310 203.3L343 194.4Z" fill="#001122" stroke="#001122"></path><path d="M591 63.9L569 79.9L584 131.6Z" fill="#4facf7" stroke="#4facf7"></path><path d="M561 98.7L552 59.7L544 109.6Z" fill="#0f2c47" stroke="#0f2c47"></path><path d="M669 146.4L613 191.4L631 195.3Z" fill="#1f4a6f" stroke="#1f4a6f"></path><path d="M729 317L695 269.1L673 289.1Z" fill="#1f4a6f" stroke="#1f4a6f"></path><path d="M685 270L705 224.3L614 225.1Z" fill="#001122" stroke="#001122"></path><path d="M701 331.9L673 289.1L642 348.9Z" fill="#479bdf" stroke="#479bdf"></path><path d="M335 117.6L402 145.6L427 114.7Z" fill="#2f699a" stroke="#2f699a"></path><path d="M324 181.3L296 190.4L310 203.3Z" fill="#0f2c47" stroke="#0f2c47"></path><path d="M335 137.6L324 149.4L343 194.4Z" fill="#2f699a" stroke="#2f699a"></path><path d="M608 442.4L644 406.7L592 424.6Z" fill="#001122" stroke="#001122"></path><path d="M592 424.6L644 406.7L588 402.7Z" fill="#001122" stroke="#001122"></path><path d="M608 442.4L592 424.6L576 432.6Z" fill="#3779b0" stroke="#3779b0"></path><path d="M710 183.3L669 146.4L631 195.3Z" fill="#173b5a" stroke="#173b5a"></path><path d="M557 477.4L608 442.4L576 432.6Z" fill="#173b5a" stroke="#173b5a"></path><path d="M591 63.9L552 59.7L569 79.9Z" fill="#4facf7" stroke="#4facf7"></path><path d="M569 79.9L552 59.7L561 98.7Z" fill="#275984" stroke="#275984"></path><path d="M324 149.4L296 190.4L324 181.3Z" fill="#275984" stroke="#275984"></path><path d="M310 203.3L253 246.3L341 264.1Z" fill="#3f8ac7" stroke="#3f8ac7"></path><path d="M695 269.1L705 224.3L685 270Z" fill="#3f8ac7" stroke="#3f8ac7"></path><path d="M669 146.4L645 109.6L613 191.4Z" fill="#275984" stroke="#275984"></path><path d="M476 486.4L484 479.4L477 429.6Z" fill="#4facf7" stroke="#4facf7"></path><path d="M477 429.6L484 479.4L532 449.6Z" fill="#479bdf" stroke="#479bdf"></path><path d="M532 449.6L557 477.4L576 432.6Z" fill="#1f4a6f" stroke="#1f4a6f"></path><path d="M389 455.6L477 429.6L417 407.7Z" fill="#479bdf" stroke="#479bdf"></path><path d="M690 372.7L701 331.9L642 348.9Z" fill="#4facf7" stroke="#4facf7"></path><path d="M695 269.1L791 256.1L705 224.3Z" fill="#4facf7" stroke="#4facf7"></path><path d="M331 100.7L335 117.6L344 69.7Z" fill="#275984" stroke="#275984"></path><path d="M335 137.6L335 117.6L324 149.4Z" fill="#4facf7" stroke="#4facf7"></path><path d="M324 149.4L258 142.6L296 190.4Z" fill="#081f34" stroke="#081f34"></path><path d="M502 44.9L457 49.7L450 81.7Z" fill="#2f699a" stroke="#2f699a"></path><path d="M450 81.7L387 39.9L427 114.7Z" fill="#4facf7" stroke="#4facf7"></path><path d="M322 298L298 355.9L372 351.7Z" fill="#081f34" stroke="#081f34"></path><path d="M355 375.9L389 455.6L417 407.7Z" fill="#2f699a" stroke="#2f699a"></path><path d="M257 327L298 355.9L322 298Z" fill="#275984" stroke="#275984"></path><path d="M361 462.6L389 455.6L355 375.9Z" fill="#2f699a" stroke="#2f699a"></path><path d="M552 59.7L502 44.9L544 109.6Z" fill="#081f34" stroke="#081f34"></path><path d="M636 84.7L591 63.9L584 131.6Z" fill="#001122" stroke="#001122"></path><path d="M552 0L495 0L502 44.9Z" fill="#1f4a6f" stroke="#1f4a6f"></path><path d="M513 520.3L557 477.4L532 449.6Z" fill="#479bdf" stroke="#479bdf"></path><path d="M298 355.9L301 373.9L355 375.9Z" fill="#479bdf" stroke="#479bdf"></path><path d="M644 406.7L690 372.7L642 348.9Z" fill="#001122" stroke="#001122"></path><path d="M686 396.6L690 372.7L644 406.7Z" fill="#4facf7" stroke="#4facf7"></path><path d="M389 455.6L476 486.4L477 429.6Z" fill="#275984" stroke="#275984"></path><path d="M484 479.4L513 520.3L532 449.6Z" fill="#479bdf" stroke="#479bdf"></path><path d="M710 183.3L683 138.6L669 146.4Z" fill="#3779b0" stroke="#3779b0"></path><path d="M669 146.4L675 103.7L645 109.6Z" fill="#2f699a" stroke="#2f699a"></path><path d="M645 109.6L636 84.7L584 131.6Z" fill="#1f4a6f" stroke="#1f4a6f"></path><path d="M478 0L436 44.9L457 49.7Z" fill="#479bdf" stroke="#479bdf"></path><path d="M457 49.7L436 44.9L450 81.7Z" fill="#2f699a" stroke="#2f699a"></path><path d="M656 78.9L636 84.7L645 109.6Z" fill="#479bdf" stroke="#479bdf"></path><path d="M705 224.3L710 183.3L631 195.3Z" fill="#0f2c47" stroke="#0f2c47"></path><path d="M734 144.6L710 183.3L756 173.4Z" fill="#001122" stroke="#001122"></path><path d="M344 69.7L335 117.6L427 114.7Z" fill="#275984" stroke="#275984"></path><path d="M264 98.6L258 142.6L324 149.4Z" fill="#3f8ac7" stroke="#3f8ac7"></path><path d="M740 329L729 317L701 331.9Z" fill="#001122" stroke="#001122"></path><path d="M663 494.4L686 396.6L644 406.7Z" fill="#479bdf" stroke="#479bdf"></path><path d="M624 459.6L644 406.7L608 442.4Z" fill="#2f699a" stroke="#2f699a"></path><path d="M557 477.4L624 459.6L608 442.4Z" fill="#4facf7" stroke="#4facf7"></path><path d="M710 183.3L694 135.4L683 138.6Z" fill="#2f699a" stroke="#2f699a"></path><path d="M683 138.6L675 103.7L669 146.4Z" fill="#001122" stroke="#001122"></path><path d="M335 454.4L361 462.6L355 375.9Z" fill="#479bdf" stroke="#479bdf"></path><path d="M389 455.6L396 508.4L476 486.4Z" fill="#173b5a" stroke="#173b5a"></path><path d="M740 329L701 331.9L751 347.9Z" fill="#275984" stroke="#275984"></path><path d="M701 331.9L729 317L673 289.1Z" fill="#1f4a6f" stroke="#1f4a6f"></path><path d="M301 373.9L313 420.6L355 375.9Z" fill="#0f2c47" stroke="#0f2c47"></path><path d="M694 135.4L675 103.7L683 138.6Z" fill="#001122" stroke="#001122"></path><path d="M222 189.4L253 246.3L296 190.4Z" fill="#275984" stroke="#275984"></path><path d="M296 190.4L253 246.3L310 203.3Z" fill="#081f34" stroke="#081f34"></path><path d="M246 390.7L280 405.7L301 373.9Z" fill="#081f34" stroke="#081f34"></path><path d="M301 373.9L280 405.7L313 420.6Z" fill="#4facf7" stroke="#4facf7"></path><path d="M675 103.7L656 78.9L645 109.6Z" fill="#275984" stroke="#275984"></path><path d="M636 84.7L606 23.9L591 63.9Z" fill="#001122" stroke="#001122"></path><path d="M387 39.9L344 69.7L427 114.7Z" fill="#479bdf" stroke="#479bdf"></path><path d="M264 98.6L324 149.4L335 117.6Z" fill="#2f699a" stroke="#2f699a"></path><path d="M246 303L257 327L322 298Z" fill="#3779b0" stroke="#3779b0"></path><path d="M253 246.3L247 262.1L322 298Z" fill="#4facf7" stroke="#4facf7"></path><path d="M386 0L387 39.9L436 44.9Z" fill="#081f34" stroke="#081f34"></path><path d="M436 44.9L387 39.9L450 81.7Z" fill="#001122" stroke="#001122"></path><path d="M313 420.6L335 454.4L355 375.9Z" fill="#3779b0" stroke="#3779b0"></path><path d="M247 262.1L244 269.1L322 298Z" fill="#3f8ac7" stroke="#3f8ac7"></path><path d="M192 249.3L244 269.1L247 262.1Z" fill="#081f34" stroke="#081f34"></path><path d="M330 477.3L374 484.3L361 462.6Z" fill="#275984" stroke="#275984"></path><path d="M361 462.6L374 484.3L389 455.6Z" fill="#479bdf" stroke="#479bdf"></path><path d="M244 269.1L246 303L322 298Z" fill="#1f4a6f" stroke="#1f4a6f"></path><path d="M694 135.4L679 90.6L675 103.7Z" fill="#173b5a" stroke="#173b5a"></path><path d="M675 103.7L679 90.6L656 78.9Z" fill="#173b5a" stroke="#173b5a"></path><path d="M751 347.9L701 331.9L751 357.7Z" fill="#3f8ac7" stroke="#3f8ac7"></path><path d="M791 256.1L755 183.3L705 224.3Z" fill="#3f8ac7" stroke="#3f8ac7"></path><path d="M482 533.3L513 520.3L476 486.4Z" fill="#275984" stroke="#275984"></path><path d="M476 486.4L513 520.3L484 479.4Z" fill="#081f34" stroke="#081f34"></path><path d="M557 477.4L629 503.4L624 459.6Z" fill="#081f34" stroke="#081f34"></path><path d="M240 361.7L298 355.9L257 327Z" fill="#173b5a" stroke="#173b5a"></path><path d="M240 361.7L301 373.9L298 355.9Z" fill="#173b5a" stroke="#173b5a"></path><path d="M279 450.4L330 477.3L335 454.4Z" fill="#1f4a6f" stroke="#1f4a6f"></path><path d="M329 496.4L396 508.4L374 484.3Z" fill="#081f34" stroke="#081f34"></path><path d="M374 484.3L396 508.4L389 455.6Z" fill="#2f699a" stroke="#2f699a"></path><path d="M552 0L502 44.9L552 59.7Z" fill="#3779b0" stroke="#3779b0"></path><path d="M502 44.9L478 0L457 49.7Z" fill="#2f699a" stroke="#2f699a"></path><path d="M606 23.9L552 59.7L591 63.9Z" fill="#479bdf" stroke="#479bdf"></path><path d="M607 0L606 23.9L608 0Z" fill="#3f8ac7" stroke="#3f8ac7"></path><path d="M656 78.9L606 23.9L636 84.7Z" fill="#173b5a" stroke="#173b5a"></path><path d="M495 0L478 0L502 44.9Z" fill="#275984" stroke="#275984"></path><path d="M264 98.6L335 117.6L331 100.7Z" fill="#1f4a6f" stroke="#1f4a6f"></path><path d="M253 246.3L192 249.3L247 262.1Z" fill="#001122" stroke="#001122"></path><path d="M710 183.3L734 144.6L694 135.4Z" fill="#3f8ac7" stroke="#3f8ac7"></path><path d="M753 88.7L735 67.7L679 90.6Z" fill="#001122" stroke="#001122"></path><path d="M755 183.3L710 183.3L705 224.3Z" fill="#081f34" stroke="#081f34"></path><path d="M751 357.7L690 372.7L743 423.6Z" fill="#275984" stroke="#275984"></path><path d="M751 357.7L701 331.9L690 372.7Z" fill="#173b5a" stroke="#173b5a"></path><path d="M771 304.9L695 269.1L729 317Z" fill="#3f8ac7" stroke="#3f8ac7"></path><path d="M443 556.1L482 533.3L476 486.4Z" fill="#001122" stroke="#001122"></path><path d="M279 450.4L335 454.4L313 420.6Z" fill="#479bdf" stroke="#479bdf"></path><path d="M335 454.4L330 477.3L361 462.6Z" fill="#4facf7" stroke="#4facf7"></path><path d="M606 23.9L552 0L552 59.7Z" fill="#1f4a6f" stroke="#1f4a6f"></path><path d="M771 304.9L729 317L740 329Z" fill="#081f34" stroke="#081f34"></path><path d="M743 423.6L690 372.7L686 396.6Z" fill="#081f34" stroke="#081f34"></path><path d="M807 196.4L756 173.4L755 183.3Z" fill="#173b5a" stroke="#173b5a"></path><path d="M246 303L240 361.7L257 327Z" fill="#479bdf" stroke="#479bdf"></path><path d="M280 405.7L279 450.4L313 420.6Z" fill="#4facf7" stroke="#4facf7"></path><path d="M231 374.9L240 361.7L216 375.9Z" fill="#479bdf" stroke="#479bdf"></path><path d="M611 528.3L629 503.4L557 477.4Z" fill="#3f8ac7" stroke="#3f8ac7"></path><path d="M624 459.6L663 494.4L644 406.7Z" fill="#1f4a6f" stroke="#1f4a6f"></path><path d="M556 535.3L557 477.4L513 520.3Z" fill="#001122" stroke="#001122"></path><path d="M771 304.9L740 329L772 322Z" fill="#1f4a6f" stroke="#1f4a6f"></path><path d="M755 183.3L756 173.4L710 183.3Z" fill="#2f699a" stroke="#2f699a"></path><path d="M531 551.1L556 535.3L513 520.3Z" fill="#479bdf" stroke="#479bdf"></path><path d="M387 39.9L361 19.9L344 69.7Z" fill="#0f2c47" stroke="#0f2c47"></path><path d="M255 73.7L264 98.6L331 100.7Z" fill="#0f2c47" stroke="#0f2c47"></path><path d="M386 0L361 19.9L387 39.9Z" fill="#479bdf" stroke="#479bdf"></path><path d="M772 322L740 329L751 347.9Z" fill="#081f34" stroke="#081f34"></path><path d="M240 361.7L246 390.7L301 373.9Z" fill="#1f4a6f" stroke="#1f4a6f"></path><path d="M815 354.7L772 322L751 347.9Z" fill="#275984" stroke="#275984"></path><path d="M258 142.6L222 189.4L296 190.4Z" fill="#3f8ac7" stroke="#3f8ac7"></path><path d="M216 375.9L240 361.7L180 290.1Z" fill="#173b5a" stroke="#173b5a"></path><path d="M255 73.7L331 100.7L344 69.7Z" fill="#001122" stroke="#001122"></path><path d="M159 164.4L210 193.3L160 141.6Z" fill="#001122" stroke="#001122"></path><path d="M648 516.3L663 494.4L629 503.4Z" fill="#2f699a" stroke="#2f699a"></path><path d="M629 503.4L663 494.4L624 459.6Z" fill="#3f8ac7" stroke="#3f8ac7"></path><path d="M243 412.6L279 450.4L280 405.7Z" fill="#2f699a" stroke="#2f699a"></path><path d="M478 0L386 0L436 44.9Z" fill="#0f2c47" stroke="#0f2c47"></path><path d="M279 450.4L329 496.4L330 477.3Z" fill="#173b5a" stroke="#173b5a"></path><path d="M330 477.3L329 496.4L374 484.3Z" fill="#001122" stroke="#001122"></path><path d="M396 508.4L443 556.1L476 486.4Z" fill="#0f2c47" stroke="#0f2c47"></path><path d="M240 361.7L231 374.9L246 390.7Z" fill="#479bdf" stroke="#479bdf"></path><path d="M246 390.7L243 412.6L280 405.7Z" fill="#479bdf" stroke="#479bdf"></path><path d="M240 361.7L246 303L180 290.1Z" fill="#3779b0" stroke="#3779b0"></path><path d="M608 0L606 23.9L697 0Z" fill="#2f699a" stroke="#2f699a"></path><path d="M606 23.9L607 0L552 0Z" fill="#3f8ac7" stroke="#3f8ac7"></path><path d="M606 23.9L656 78.9L697 0Z" fill="#3f8ac7" stroke="#3f8ac7"></path><path d="M697 0L656 78.9L679 90.6Z" fill="#275984" stroke="#275984"></path><path d="M556 535.3L611 528.3L557 477.4Z" fill="#275984" stroke="#275984"></path><path d="M524 594.1L531 551.1L512 600Z" fill="#3f8ac7" stroke="#3f8ac7"></path><path d="M482 533.3L531 551.1L513 520.3Z" fill="#001122" stroke="#001122"></path><path d="M556 535.3L592 561.1L611 528.3Z" fill="#173b5a" stroke="#173b5a"></path><path d="M386 0L374 0L361 19.9Z" fill="#1f4a6f" stroke="#1f4a6f"></path><path d="M255 73.7L252 95.7L264 98.6Z" fill="#275984" stroke="#275984"></path><path d="M216 375.9L243 412.6L246 390.7Z" fill="#0f2c47" stroke="#0f2c47"></path><path d="M160 141.6L222 189.4L258 142.6Z" fill="#2f699a" stroke="#2f699a"></path><path d="M222 189.4L210 193.3L253 246.3Z" fill="#275984" stroke="#275984"></path><path d="M663 494.4L743 423.6L686 396.6Z" fill="#001122" stroke="#001122"></path><path d="M751 357.7L815 354.7L751 347.9Z" fill="#479bdf" stroke="#479bdf"></path><path d="M611 528.3L648 516.3L629 503.4Z" fill="#4facf7" stroke="#4facf7"></path><path d="M756 496.4L779 439.6L743 423.6Z" fill="#173b5a" stroke="#173b5a"></path><path d="M328 13.9L344 69.7L361 19.9Z" fill="#0f2c47" stroke="#0f2c47"></path><path d="M264 98.6L252 95.7L258 142.6Z" fill="#3f8ac7" stroke="#3f8ac7"></path><path d="M841 306.9L771 304.9L772 322Z" fill="#1f4a6f" stroke="#1f4a6f"></path><path d="M841 306.9L791 256.1L771 304.9Z" fill="#2f699a" stroke="#2f699a"></path><path d="M771 304.9L791 256.1L695 269.1Z" fill="#3f8ac7" stroke="#3f8ac7"></path><path d="M422 581.1L443 556.1L396 508.4Z" fill="#001122" stroke="#001122"></path><path d="M374 0L328 13.9L361 19.9Z" fill="#479bdf" stroke="#479bdf"></path><path d="M180 290.1L246 303L244 269.1Z" fill="#3f8ac7" stroke="#3f8ac7"></path><path d="M231 374.9L216 375.9L246 390.7Z" fill="#0f2c47" stroke="#0f2c47"></path><path d="M210 193.3L192 249.3L253 246.3Z" fill="#4facf7" stroke="#4facf7"></path><path d="M268 18.9L255 73.7L344 69.7Z" fill="#3779b0" stroke="#3779b0"></path><path d="M252 95.7L197 88.7L258 142.6Z" fill="#1f4a6f" stroke="#1f4a6f"></path><path d="M753 88.7L694 135.4L734 144.6Z" fill="#479bdf" stroke="#479bdf"></path><path d="M753 88.7L679 90.6L694 135.4Z" fill="#3779b0" stroke="#3779b0"></path><path d="M753 88.7L734 144.6L784 110.7Z" fill="#4facf7" stroke="#4facf7"></path><path d="M784 110.7L734 144.6L756 173.4Z" fill="#173b5a" stroke="#173b5a"></path><path d="M551 600L592 561.1L556 535.3Z" fill="#173b5a" stroke="#173b5a"></path><path d="M611 528.3L656 540.3L648 516.3Z" fill="#2f699a" stroke="#2f699a"></path><path d="M551 600L556 535.3L531 551.1Z" fill="#0f2c47" stroke="#0f2c47"></path><path d="M192 249.3L180 290.1L244 269.1Z" fill="#2f699a" stroke="#2f699a"></path><path d="M813 219.3L807 196.4L755 183.3Z" fill="#275984" stroke="#275984"></path><path d="M779 439.6L788 391.7L743 423.6Z" fill="#001122" stroke="#001122"></path><path d="M743 423.6L788 391.7L751 357.7Z" fill="#081f34" stroke="#081f34"></path><path d="M791 256.1L813 219.3L755 183.3Z" fill="#001122" stroke="#001122"></path><path d="M592 561.1L656 540.3L611 528.3Z" fill="#001122" stroke="#001122"></path><path d="M648 516.3L691 540.1L663 494.4Z" fill="#001122" stroke="#001122"></path><path d="M819 221.1L813 219.3L827 232.1Z" fill="#275984" stroke="#275984"></path><path d="M374 0L311 0L328 13.9Z" fill="#1f4a6f" stroke="#1f4a6f"></path><path d="M328 13.9L268 18.9L344 69.7Z" fill="#0f2c47" stroke="#0f2c47"></path><path d="M772 70.9L755 71.9L753 88.7Z" fill="#081f34" stroke="#081f34"></path><path d="M753 88.7L755 71.9L735 67.7Z" fill="#4facf7" stroke="#4facf7"></path><path d="M735 67.7L697 0L679 90.6Z" fill="#0f2c47" stroke="#0f2c47"></path><path d="M327 582.1L422 581.1L396 508.4Z" fill="#275984" stroke="#275984"></path><path d="M512 600L531 551.1L482 533.3Z" fill="#001122" stroke="#001122"></path><path d="M279 450.4L297 523.3L329 496.4Z" fill="#3779b0" stroke="#3779b0"></path><path d="M329 496.4L327 582.1L396 508.4Z" fill="#275984" stroke="#275984"></path><path d="M232 499.3L297 523.3L279 450.4Z" fill="#4facf7" stroke="#4facf7"></path><path d="M224 463.6L279 450.4L243 412.6Z" fill="#3779b0" stroke="#3779b0"></path><path d="M813 219.3L819 221.1L807 196.4Z" fill="#2f699a" stroke="#2f699a"></path><path d="M822 144.6L784 110.7L756 173.4Z" fill="#2f699a" stroke="#2f699a"></path><path d="M827 232.1L813 219.3L791 256.1Z" fill="#4facf7" stroke="#4facf7"></path><path d="M822 144.6L756 173.4L807 196.4Z" fill="#0f2c47" stroke="#0f2c47"></path><path d="M512 600L482 533.3L443 556.1Z" fill="#3779b0" stroke="#3779b0"></path><path d="M592 561.1L600 584.1L656 540.3Z" fill="#3779b0" stroke="#3779b0"></path><path d="M699 0L697 0L735 67.7Z" fill="#275984" stroke="#275984"></path><path d="M788 391.7L815 354.7L751 357.7Z" fill="#1f4a6f" stroke="#1f4a6f"></path><path d="M135 411.7L197 412.7L216 375.9Z" fill="#081f34" stroke="#081f34"></path><path d="M216 375.9L197 412.7L243 412.6Z" fill="#3779b0" stroke="#3779b0"></path><path d="M841 306.9L827 232.1L791 256.1Z" fill="#3f8ac7" stroke="#3f8ac7"></path><path d="M819 221.1L824 184.4L807 196.4Z" fill="#1f4a6f" stroke="#1f4a6f"></path><path d="M732 8.9L699 0L735 67.7Z" fill="#173b5a" stroke="#173b5a"></path><path d="M756 496.4L743 423.6L663 494.4Z" fill="#173b5a" stroke="#173b5a"></path><path d="M788 391.7L846 385.7L815 354.7Z" fill="#1f4a6f" stroke="#1f4a6f"></path><path d="M311 0L268 18.9L328 13.9Z" fill="#0f2c47" stroke="#0f2c47"></path><path d="M255 73.7L197 88.7L252 95.7Z" fill="#3f8ac7" stroke="#3f8ac7"></path><path d="M691 540.1L648 516.3L656 540.3Z" fill="#001122" stroke="#001122"></path><path d="M691 540.1L707 525.3L663 494.4Z" fill="#0f2c47" stroke="#0f2c47"></path><path d="M434 600L512 600L443 556.1Z" fill="#479bdf" stroke="#479bdf"></path><path d="M551 600L600 584.1L592 561.1Z" fill="#081f34" stroke="#081f34"></path><path d="M512 600L515 600L524 594.1Z" fill="#2f699a" stroke="#2f699a"></path><path d="M197 412.7L224 463.6L243 412.6Z" fill="#275984" stroke="#275984"></path><path d="M551 600L531 551.1L524 594.1Z" fill="#1f4a6f" stroke="#1f4a6f"></path><path d="M784 110.7L772 70.9L753 88.7Z" fill="#081f34" stroke="#081f34"></path><path d="M755 71.9L732 8.9L735 67.7Z" fill="#3779b0" stroke="#3779b0"></path><path d="M826 40.9L772 70.9L784 110.7Z" fill="#2f699a" stroke="#2f699a"></path><path d="M880 204.3L824 184.4L819 221.1Z" fill="#3f8ac7" stroke="#3f8ac7"></path><path d="M660 600L691 540.1L656 540.3Z" fill="#479bdf" stroke="#479bdf"></path><path d="M515 600L551 600L524 594.1Z" fill="#0f2c47" stroke="#0f2c47"></path><path d="M433 600L434 600L422 581.1Z" fill="#173b5a" stroke="#173b5a"></path><path d="M422 581.1L434 600L443 556.1Z" fill="#1f4a6f" stroke="#1f4a6f"></path><path d="M330 600L433 600L422 581.1Z" fill="#081f34" stroke="#081f34"></path><path d="M132 274.1L153 307.9L180 290.1Z" fill="#4facf7" stroke="#4facf7"></path><path d="M180 290.1L153 307.9L216 375.9Z" fill="#2f699a" stroke="#2f699a"></path><path d="M132 274.1L180 290.1L192 249.3Z" fill="#081f34" stroke="#081f34"></path><path d="M156 192.4L192 249.3L210 193.3Z" fill="#0f2c47" stroke="#0f2c47"></path><path d="M188 44.9L197 88.7L255 73.7Z" fill="#0f2c47" stroke="#0f2c47"></path><path d="M159 164.4L156 192.4L210 193.3Z" fill="#2f699a" stroke="#2f699a"></path><path d="M824 184.4L822 144.6L807 196.4Z" fill="#001122" stroke="#001122"></path><path d="M842 116.7L822 144.6L900 146.4Z" fill="#1f4a6f" stroke="#1f4a6f"></path><path d="M772 70.9L732 8.9L755 71.9Z" fill="#4facf7" stroke="#4facf7"></path><path d="M739 0L732 8.9L772 70.9Z" fill="#081f34" stroke="#081f34"></path><path d="M845 320.9L841 306.9L815 354.7Z" fill="#081f34" stroke="#081f34"></path><path d="M815 354.7L841 306.9L772 322Z" fill="#3f8ac7" stroke="#3f8ac7"></path><path d="M900 146.4L822 144.6L824 184.4Z" fill="#1f4a6f" stroke="#1f4a6f"></path><path d="M759 504.4L756 496.4L707 525.3Z" fill="#2f699a" stroke="#2f699a"></path><path d="M707 525.3L756 496.4L663 494.4Z" fill="#3779b0" stroke="#3779b0"></path><path d="M846 385.7L845 320.9L815 354.7Z" fill="#173b5a" stroke="#173b5a"></path><path d="M262 541.3L301 555.1L297 523.3Z" fill="#4facf7" stroke="#4facf7"></path><path d="M297 523.3L301 555.1L329 496.4Z" fill="#275984" stroke="#275984"></path><path d="M160 141.6L210 193.3L222 189.4Z" fill="#0f2c47" stroke="#0f2c47"></path><path d="M132 274.1L146 313L153 307.9Z" fill="#173b5a" stroke="#173b5a"></path><path d="M153 307.9L146 313L216 375.9Z" fill="#3f8ac7" stroke="#3f8ac7"></path><path d="M224 463.6L232 499.3L279 450.4Z" fill="#173b5a" stroke="#173b5a"></path><path d="M205 477.4L232 499.3L224 463.6Z" fill="#275984" stroke="#275984"></path><path d="M205 477.4L224 463.6L201 473.4Z" fill="#1f4a6f" stroke="#1f4a6f"></path><path d="M846 385.7L788 391.7L851 399.6Z" fill="#0f2c47" stroke="#0f2c47"></path><path d="M880 204.3L819 221.1L827 232.1Z" fill="#081f34" stroke="#081f34"></path><path d="M551 600L611 600L600 584.1Z" fill="#001122" stroke="#001122"></path><path d="M600 584.1L611 600L656 540.3Z" fill="#1f4a6f" stroke="#1f4a6f"></path><path d="M732 563.1L759 504.4L707 525.3Z" fill="#3f8ac7" stroke="#3f8ac7"></path><path d="M756 496.4L789 464.6L779 439.6Z" fill="#2f699a" stroke="#2f699a"></path><path d="M197 88.7L160 141.6L258 142.6Z" fill="#173b5a" stroke="#173b5a"></path><path d="M108 226.3L132 274.1L156 192.4Z" fill="#479bdf" stroke="#479bdf"></path><path d="M156 192.4L132 274.1L192 249.3Z" fill="#479bdf" stroke="#479bdf"></path><path d="M732 563.1L707 525.3L691 540.1Z" fill="#001122" stroke="#001122"></path><path d="M756 496.4L793 510.3L789 464.6Z" fill="#275984" stroke="#275984"></path><path d="M821 0L739 0L772 70.9Z" fill="#173b5a" stroke="#173b5a"></path><path d="M732 8.9L739 0L699 0Z" fill="#2f699a" stroke="#2f699a"></path><path d="M330 600L327 582.1L290 600Z" fill="#4facf7" stroke="#4facf7"></path><path d="M301 555.1L327 582.1L329 496.4Z" fill="#3779b0" stroke="#3779b0"></path><path d="M201 473.4L224 463.6L197 412.7Z" fill="#3779b0" stroke="#3779b0"></path><path d="M232 499.3L262 541.3L297 523.3Z" fill="#001122" stroke="#001122"></path><path d="M168 476.3L201 473.4L150 449.6Z" fill="#0f2c47" stroke="#0f2c47"></path><path d="M311 0L247 0L268 18.9Z" fill="#081f34" stroke="#081f34"></path><path d="M268 18.9L198 28.9L255 73.7Z" fill="#173b5a" stroke="#173b5a"></path><path d="M197 88.7L114 67.7L160 141.6Z" fill="#275984" stroke="#275984"></path><path d="M256 569.1L208 573.1L244 600Z" fill="#4facf7" stroke="#4facf7"></path><path d="M256 569.1L262 541.3L208 573.1Z" fill="#1f4a6f" stroke="#1f4a6f"></path><path d="M126 151.6L156 192.4L159 164.4Z" fill="#275984" stroke="#275984"></path><path d="M146 313L135 411.7L216 375.9Z" fill="#3f8ac7" stroke="#3f8ac7"></path><path d="M851 399.6L788 391.7L779 439.6Z" fill="#479bdf" stroke="#479bdf"></path><path d="M611 600L660 600L656 540.3Z" fill="#3779b0" stroke="#3779b0"></path><path d="M327 582.1L330 600L422 581.1Z" fill="#173b5a" stroke="#173b5a"></path><path d="M290 600L327 582.1L301 555.1Z" fill="#3779b0" stroke="#3779b0"></path><path d="M878 281L827 232.1L841 306.9Z" fill="#479bdf" stroke="#479bdf"></path><path d="M822 144.6L842 116.7L784 110.7Z" fill="#173b5a" stroke="#173b5a"></path><path d="M878 281L841 306.9L845 320.9Z" fill="#479bdf" stroke="#479bdf"></path><path d="M198 28.9L188 44.9L255 73.7Z" fill="#173b5a" stroke="#173b5a"></path><path d="M247 0L198 28.9L268 18.9Z" fill="#2f699a" stroke="#2f699a"></path><path d="M858 455.4L851 399.6L779 439.6Z" fill="#479bdf" stroke="#479bdf"></path><path d="M900 280.1L878 281L900 330Z" fill="#001122" stroke="#001122"></path><path d="M858 455.4L779 439.6L789 464.6Z" fill="#275984" stroke="#275984"></path><path d="M660 600L732 563.1L691 540.1Z" fill="#3f8ac7" stroke="#3f8ac7"></path><path d="M793 510.3L813 482.4L789 464.6Z" fill="#479bdf" stroke="#479bdf"></path><path d="M878 281L845 320.9L900 330Z" fill="#0f2c47" stroke="#0f2c47"></path><path d="M793 510.3L756 496.4L759 504.4Z" fill="#0f2c47" stroke="#0f2c47"></path><path d="M114 67.7L126 151.6L160 141.6Z" fill="#1f4a6f" stroke="#1f4a6f"></path><path d="M160 141.6L126 151.6L159 164.4Z" fill="#3f8ac7" stroke="#3f8ac7"></path><path d="M792 525.3L793 510.3L759 504.4Z" fill="#001122" stroke="#001122"></path><path d="M247 0L212 0L198 28.9Z" fill="#3f8ac7" stroke="#3f8ac7"></path><path d="M198 28.9L160 0L188 44.9Z" fill="#3779b0" stroke="#3779b0"></path><path d="M188 44.9L114 67.7L197 88.7Z" fill="#1f4a6f" stroke="#1f4a6f"></path><path d="M208 573.1L232 499.3L142 520.3Z" fill="#479bdf" stroke="#479bdf"></path><path d="M262 541.3L256 569.1L301 555.1Z" fill="#275984" stroke="#275984"></path><path d="M126 151.6L108 226.3L156 192.4Z" fill="#3f8ac7" stroke="#3f8ac7"></path><path d="M112 402.7L135 411.7L146 313Z" fill="#4facf7" stroke="#4facf7"></path><path d="M87 290L146 313L132 274.1Z" fill="#173b5a" stroke="#173b5a"></path><path d="M201 473.4L168 476.3L205 477.4Z" fill="#275984" stroke="#275984"></path><path d="M900 250.3L880 204.3L827 232.1Z" fill="#173b5a" stroke="#173b5a"></path><path d="M150 449.6L201 473.4L197 412.7Z" fill="#3779b0" stroke="#3779b0"></path><path d="M135 411.7L150 449.6L197 412.7Z" fill="#1f4a6f" stroke="#1f4a6f"></path><path d="M256 569.1L290 600L301 555.1Z" fill="#0f2c47" stroke="#0f2c47"></path><path d="M108 226.3L101 263L132 274.1Z" fill="#0f2c47" stroke="#0f2c47"></path><path d="M790 539.1L792 525.3L759 504.4Z" fill="#275984" stroke="#275984"></path><path d="M793 510.3L820 541.3L813 482.4Z" fill="#001122" stroke="#001122"></path><path d="M126 458.4L141 444.6L92 435.6Z" fill="#001122" stroke="#001122"></path><path d="M135 411.7L141 444.6L150 449.6Z" fill="#3f8ac7" stroke="#3f8ac7"></path><path d="M150 449.6L126 458.4L168 476.3Z" fill="#3f8ac7" stroke="#3f8ac7"></path><path d="M861 104.6L826 40.9L842 116.7Z" fill="#479bdf" stroke="#479bdf"></path><path d="M842 116.7L826 40.9L784 110.7Z" fill="#4facf7" stroke="#4facf7"></path><path d="M900 144.6L861 104.6L842 116.7Z" fill="#3779b0" stroke="#3779b0"></path><path d="M788 581.1L790 539.1L732 563.1Z" fill="#479bdf" stroke="#479bdf"></path><path d="M732 563.1L790 539.1L759 504.4Z" fill="#479bdf" stroke="#479bdf"></path><path d="M900 483.3L858 455.4L877 534.1Z" fill="#3779b0" stroke="#3779b0"></path><path d="M900 377.9L846 385.7L851 399.6Z" fill="#0f2c47" stroke="#0f2c47"></path><path d="M878 281L900 250.3L827 232.1Z" fill="#0f2c47" stroke="#0f2c47"></path><path d="M880 204.3L900 146.4L824 184.4Z" fill="#0f2c47" stroke="#0f2c47"></path><path d="M900 280.1L900 250.3L878 281Z" fill="#3779b0" stroke="#3779b0"></path><path d="M900 330L845 320.9L846 385.7Z" fill="#1f4a6f" stroke="#1f4a6f"></path><path d="M244 600L256 593.1L256 569.1Z" fill="#173b5a" stroke="#173b5a"></path><path d="M256 569.1L256 593.1L290 600Z" fill="#3779b0" stroke="#3779b0"></path><path d="M262 541.3L232 499.3L208 573.1Z" fill="#1f4a6f" stroke="#1f4a6f"></path><path d="M61 329.9L112 402.7L146 313Z" fill="#3f8ac7" stroke="#3f8ac7"></path><path d="M70 293L87 290L101 263Z" fill="#4facf7" stroke="#4facf7"></path><path d="M101 263L87 290L132 274.1Z" fill="#001122" stroke="#001122"></path><path d="M86 240.1L101 263L108 226.3Z" fill="#2f699a" stroke="#2f699a"></path><path d="M84 228.3L86 240.1L108 226.3Z" fill="#3779b0" stroke="#3779b0"></path><path d="M900 377.9L900 330L846 385.7Z" fill="#2f699a" stroke="#2f699a"></path><path d="M858 455.4L789 464.6L813 482.4Z" fill="#081f34" stroke="#081f34"></path><path d="M820 541.3L793 510.3L792 525.3Z" fill="#2f699a" stroke="#2f699a"></path><path d="M52 201.4L84 228.3L108 226.3Z" fill="#0f2c47" stroke="#0f2c47"></path><path d="M86 240.1L70 293L101 263Z" fill="#1f4a6f" stroke="#1f4a6f"></path><path d="M92 435.6L141 444.6L135 411.7Z" fill="#3779b0" stroke="#3779b0"></path><path d="M141 444.6L126 458.4L150 449.6Z" fill="#479bdf" stroke="#479bdf"></path><path d="M826 40.9L821 0L772 70.9Z" fill="#173b5a" stroke="#173b5a"></path><path d="M873 0L821 0L826 40.9Z" fill="#479bdf" stroke="#479bdf"></path><path d="M232 499.3L205 477.4L142 520.3Z" fill="#2f699a" stroke="#2f699a"></path><path d="M256 593.1L244 600L290 600Z" fill="#1f4a6f" stroke="#1f4a6f"></path><path d="M900 399.6L900 377.9L851 399.6Z" fill="#081f34" stroke="#081f34"></path><path d="M900 250.3L900 146.4L880 204.3Z" fill="#479bdf" stroke="#479bdf"></path><path d="M861 104.6L900 77.9L826 40.9Z" fill="#173b5a" stroke="#173b5a"></path><path d="M142 520.3L205 477.4L168 476.3Z" fill="#0f2c47" stroke="#0f2c47"></path><path d="M900 146.4L900 144.6L842 116.7Z" fill="#3779b0" stroke="#3779b0"></path><path d="M660 600L754 600L732 563.1Z" fill="#0f2c47" stroke="#0f2c47"></path><path d="M790 539.1L820 541.3L792 525.3Z" fill="#1f4a6f" stroke="#1f4a6f"></path><path d="M16 292.1L70 293L86 240.1Z" fill="#0f2c47" stroke="#0f2c47"></path><path d="M87 290L61 329.9L146 313Z" fill="#173b5a" stroke="#173b5a"></path><path d="M112 402.7L92 435.6L135 411.7Z" fill="#3779b0" stroke="#3779b0"></path><path d="M212 0L160 0L198 28.9Z" fill="#001122" stroke="#001122"></path><path d="M126 151.6L52 201.4L108 226.3Z" fill="#0f2c47" stroke="#0f2c47"></path><path d="M900 419.7L851 399.6L858 455.4Z" fill="#2f699a" stroke="#2f699a"></path><path d="M900 419.7L900 399.6L851 399.6Z" fill="#3779b0" stroke="#3779b0"></path><path d="M788 581.1L820 541.3L790 539.1Z" fill="#081f34" stroke="#081f34"></path><path d="M136 6.9L114 67.7L188 44.9Z" fill="#001122" stroke="#001122"></path><path d="M26 355.9L61 329.9L0 333.9Z" fill="#2f699a" stroke="#2f699a"></path><path d="M754 600L788 581.1L732 563.1Z" fill="#173b5a" stroke="#173b5a"></path><path d="M900 144.6L900 111.7L861 104.6Z" fill="#3779b0" stroke="#3779b0"></path><path d="M900 435.4L900 419.7L858 455.4Z" fill="#4facf7" stroke="#4facf7"></path><path d="M119 526.1L142 520.3L95 502.4Z" fill="#479bdf" stroke="#479bdf"></path><path d="M126 458.4L142 520.3L168 476.3Z" fill="#173b5a" stroke="#173b5a"></path><path d="M58 364.7L92 435.6L112 402.7Z" fill="#3779b0" stroke="#3779b0"></path><path d="M52 201.4L86 240.1L84 228.3Z" fill="#173b5a" stroke="#173b5a"></path><path d="M70 293L61 329.9L87 290Z" fill="#173b5a" stroke="#173b5a"></path><path d="M900 483.3L900 435.4L858 455.4Z" fill="#479bdf" stroke="#479bdf"></path><path d="M195 600L209 600L208 573.1Z" fill="#275984" stroke="#275984"></path><path d="M208 573.1L209 600L244 600Z" fill="#2f699a" stroke="#2f699a"></path><path d="M160 0L136 6.9L188 44.9Z" fill="#2f699a" stroke="#2f699a"></path><path d="M103 50.7L85 92.6L114 67.7Z" fill="#001122" stroke="#001122"></path><path d="M114 67.7L85 92.6L126 151.6Z" fill="#3f8ac7" stroke="#3f8ac7"></path><path d="M788 581.1L824 600L820 541.3Z" fill="#2f699a" stroke="#2f699a"></path><path d="M877 534.1L858 455.4L813 482.4Z" fill="#3779b0" stroke="#3779b0"></path><path d="M754 600L787 600L788 581.1Z" fill="#2f699a" stroke="#2f699a"></path><path d="M900 111.7L900 77.9L861 104.6Z" fill="#001122" stroke="#001122"></path><path d="M136 6.9L103 50.7L114 67.7Z" fill="#1f4a6f" stroke="#1f4a6f"></path><path d="M49 196.4L52 201.4L126 151.6Z" fill="#4facf7" stroke="#4facf7"></path><path d="M787 600L792 600L788 581.1Z" fill="#0f2c47" stroke="#0f2c47"></path><path d="M26 355.9L58 364.7L61 329.9Z" fill="#173b5a" stroke="#173b5a"></path><path d="M61 329.9L58 364.7L112 402.7Z" fill="#4facf7" stroke="#4facf7"></path><path d="M163 600L195 600L208 573.1Z" fill="#3f8ac7" stroke="#3f8ac7"></path><path d="M61 113.6L49 196.4L126 151.6Z" fill="#173b5a" stroke="#173b5a"></path><path d="M16 292.1L61 329.9L70 293Z" fill="#4facf7" stroke="#4facf7"></path><path d="M95 502.4L142 520.3L126 458.4Z" fill="#173b5a" stroke="#173b5a"></path><path d="M142 520.3L163 600L208 573.1Z" fill="#1f4a6f" stroke="#1f4a6f"></path><path d="M95 502.4L126 458.4L74 483.3Z" fill="#0f2c47" stroke="#0f2c47"></path><path d="M23 81.7L61 113.6L85 92.6Z" fill="#173b5a" stroke="#173b5a"></path><path d="M85 92.6L61 113.6L126 151.6Z" fill="#001122" stroke="#001122"></path><path d="M877 534.1L813 482.4L820 541.3Z" fill="#173b5a" stroke="#173b5a"></path><path d="M900 77.9L873 0L826 40.9Z" fill="#001122" stroke="#001122"></path><path d="M74 483.3L126 458.4L92 435.6Z" fill="#081f34" stroke="#081f34"></path><path d="M136 6.9L99 16.9L103 50.7Z" fill="#081f34" stroke="#081f34"></path><path d="M103 50.7L23 81.7L85 92.6Z" fill="#001122" stroke="#001122"></path><path d="M108 0L99 16.9L136 6.9Z" fill="#3f8ac7" stroke="#3f8ac7"></path><path d="M824 600L877 534.1L820 541.3Z" fill="#1f4a6f" stroke="#1f4a6f"></path><path d="M160 0L108 0L136 6.9Z" fill="#1f4a6f" stroke="#1f4a6f"></path><path d="M792 600L824 600L788 581.1Z" fill="#1f4a6f" stroke="#1f4a6f"></path><path d="M119 526.1L163 600L142 520.3Z" fill="#173b5a" stroke="#173b5a"></path><path d="M96 600L163 600L119 526.1Z" fill="#3f8ac7" stroke="#3f8ac7"></path><path d="M47 457.6L74 483.3L92 435.6Z" fill="#3779b0" stroke="#3779b0"></path><path d="M95 502.4L64 550.1L119 526.1Z" fill="#0f2c47" stroke="#0f2c47"></path><path d="M16 292.1L0 241.3L0 275Z" fill="#0f2c47" stroke="#0f2c47"></path><path d="M58 364.7L47 457.6L92 435.6Z" fill="#3779b0" stroke="#3779b0"></path><path d="M16 292.1L86 240.1L0 241.3Z" fill="#2f699a" stroke="#2f699a"></path><path d="M0 241.3L52 201.4L0 221.1Z" fill="#479bdf" stroke="#479bdf"></path><path d="M99 16.9L81 0L103 50.7Z" fill="#4facf7" stroke="#4facf7"></path><path d="M108 0L93 0L99 16.9Z" fill="#479bdf" stroke="#479bdf"></path><path d="M0 149.4L21 182.3L61 113.6Z" fill="#1f4a6f" stroke="#1f4a6f"></path><path d="M61 113.6L21 182.3L49 196.4Z" fill="#1f4a6f" stroke="#1f4a6f"></path><path d="M900 77.9L900 0L873 0Z" fill="#001122" stroke="#001122"></path><path d="M0 410.7L47 457.6L58 364.7Z" fill="#2f699a" stroke="#2f699a"></path><path d="M74 483.3L64 550.1L95 502.4Z" fill="#001122" stroke="#001122"></path><path d="M93 0L81 0L99 16.9Z" fill="#001122" stroke="#001122"></path><path d="M16 292.1L0 333.9L61 329.9Z" fill="#2f699a" stroke="#2f699a"></path><path d="M26 355.9L0 410.7L58 364.7Z" fill="#3f8ac7" stroke="#3f8ac7"></path><path d="M0 241.3L86 240.1L52 201.4Z" fill="#3f8ac7" stroke="#3f8ac7"></path><path d="M0 221.1L49 196.4L21 182.3Z" fill="#4facf7" stroke="#4facf7"></path><path d="M0 221.1L52 201.4L49 196.4Z" fill="#2f699a" stroke="#2f699a"></path><path d="M900 600L900 550.1L877 534.1Z" fill="#0f2c47" stroke="#0f2c47"></path><path d="M877 534.1L900 550.1L900 483.3Z" fill="#3779b0" stroke="#3779b0"></path><path d="M0 149.4L0 221.1L21 182.3Z" fill="#479bdf" stroke="#479bdf"></path><path d="M0 275L0 333.9L16 292.1Z" fill="#001122" stroke="#001122"></path><path d="M15 37.9L23 81.7L103 50.7Z" fill="#3779b0" stroke="#3779b0"></path><path d="M0 108.6L0 149.4L61 113.6Z" fill="#3f8ac7" stroke="#3f8ac7"></path><path d="M0 458.4L36 489.4L47 457.6Z" fill="#3f8ac7" stroke="#3f8ac7"></path><path d="M47 457.6L36 489.4L74 483.3Z" fill="#4facf7" stroke="#4facf7"></path><path d="M0 333.9L0 410.7L26 355.9Z" fill="#001122" stroke="#001122"></path><path d="M36 489.4L64 550.1L74 483.3Z" fill="#173b5a" stroke="#173b5a"></path><path d="M0 64.9L0 108.6L23 81.7Z" fill="#3779b0" stroke="#3779b0"></path><path d="M23 81.7L0 108.6L61 113.6Z" fill="#001122" stroke="#001122"></path><path d="M0 410.7L0 420.6L47 457.6Z" fill="#081f34" stroke="#081f34"></path><path d="M36 489.4L7 537.3L64 550.1Z" fill="#001122" stroke="#001122"></path><path d="M64 550.1L96 600L119 526.1Z" fill="#0f2c47" stroke="#0f2c47"></path><path d="M824 600L900 600L877 534.1Z" fill="#3779b0" stroke="#3779b0"></path><path d="M81 0L15 37.9L103 50.7Z" fill="#1f4a6f" stroke="#1f4a6f"></path><path d="M0 420.6L0 458.4L47 457.6Z" fill="#001122" stroke="#001122"></path><path d="M64 550.1L41 593.1L96 600Z" fill="#3f8ac7" stroke="#3f8ac7"></path><path d="M0 57.7L0 64.9L23 81.7Z" fill="#081f34" stroke="#081f34"></path><path d="M15 37.9L0 57.7L23 81.7Z" fill="#1f4a6f" stroke="#1f4a6f"></path><path d="M0 458.4L0 509.3L36 489.4Z" fill="#081f34" stroke="#081f34"></path><path d="M0 509.3L7 537.3L36 489.4Z" fill="#1f4a6f" stroke="#1f4a6f"></path><path d="M7 537.3L41 593.1L64 550.1Z" fill="#081f34" stroke="#081f34"></path><path d="M81 0L0 0L15 37.9Z" fill="#1f4a6f" stroke="#1f4a6f"></path><path d="M15 37.9L0 0L0 57.7Z" fill="#3f8ac7" stroke="#3f8ac7"></path><path d="M0 589.1L41 593.1L7 537.3Z" fill="#173b5a" stroke="#173b5a"></path><path d="M0 589.1L16 600L41 593.1Z" fill="#001122" stroke="#001122"></path><path d="M41 593.1L16 600L96 600Z" fill="#275984" stroke="#275984"></path><path d="M0 509.3L0 589.1L7 537.3Z" fill="#001122" stroke="#001122"></path><path d="M0 589.1L0 600L16 600Z" fill="#479bdf" stroke="#479bdf"></path></g></svg>