<svg xmlns="http://www.w3.org/2000/svg" version="1.1" xmlns:xlink="http://www.w3.org/1999/xlink" xmlns:svgjs="http://svgjs.com/svgjs" width="1440" height="560" preserveAspectRatio="none" viewBox="0 0 1440 560"><g mask="url(&quot;#SvgjsMask1017&quot;)" fill="none"><rect width="1440" height="560" x="0" y="0" fill="#0e2a47"></rect><path d="M 0,2 C 57.6,35.2 172.8,160.2 288,168 C 403.2,175.8 460.8,43.2 576,41 C 691.2,38.8 748.8,155.4 864,157 C 979.2,158.6 1036.8,45.2 1152,49 C 1267.2,52.8 1382.4,150.6 1440,176L1440 560L0 560z" fill="rgba(44, 88, 134, 1)"></path><path d="M 0,356 C 144,371 432,441.6 720,431 C 1008,420.4 1296,328.6 1440,303L1440 560L0 560z" fill="rgba(0, 99, 205, 1)"></path></g><defs><mask id="SvgjsMask1017"><rect width="1440" height="560" fill="#ffffff"></rect></mask></defs></svg>